<?xml version="1.0" standalone="no"?>
<!DOCTYPE svg PUBLIC "-//W3C//DTD SVG 20010904//EN"
 "http://www.w3.org/TR/2001/REC-SVG-20010904/DTD/svg10.dtd">
<svg version="1.0" xmlns="http://www.w3.org/2000/svg"
 width="512.000000pt" height="512.000000pt" viewBox="0 0 512.000000 512.000000"
 preserveAspectRatio="xMidYMid meet">
<metadata>
Created by potrace 1.14, written by Peter Selinger 2001-2017
</metadata>
<g transform="translate(0.000000,512.000000) scale(0.100000,-0.100000)"
fill="#000000" stroke="none">
<path d="M2475 5112 c-168 -35 -349 -147 -524 -323 -88 -88 -192 -210 -241
-282 -14 -20 -28 -37 -32 -37 -5 0 -8 -6 -8 -14 0 -8 -4 -16 -8 -18 -11 -5
-162 -242 -162 -255 0 -6 -3 -13 -8 -15 -4 -1 -25 -37 -46 -78 -22 -41 -43
-76 -48 -78 -4 -2 -8 -10 -8 -18 0 -7 -9 -29 -19 -48 -11 -19 -17 -37 -14 -40
4 -3 2 -6 -3 -6 -6 0 -16 -16 -23 -36 -7 -20 -52 -76 -104 -130 -51 -53 -90
-96 -88 -97 2 -1 -14 -20 -35 -43 -74 -77 -193 -231 -270 -349 -21 -33 -42
-61 -46 -63 -5 -2 -8 -10 -8 -18 0 -8 -4 -14 -10 -14 -5 0 -10 -4 -10 -9 0 -5
-26 -54 -59 -108 -32 -54 -61 -109 -65 -121 -4 -12 -12 -22 -17 -22 -5 0 -8
-3 -7 -7 1 -5 -9 -33 -24 -63 -36 -74 -80 -173 -83 -185 -1 -5 -7 -23 -14 -40
-42 -100 -116 -334 -136 -425 -2 -8 -11 -44 -20 -80 -22 -89 -23 -93 -29 -131
-3 -19 -8 -45 -11 -59 -3 -14 -7 -38 -10 -55 -2 -16 -6 -41 -9 -54 -5 -22 -11
-75 -22 -189 -2 -24 -6 -47 -9 -52 -3 -4 1 -11 7 -13 7 -3 8 -6 2 -6 -7 -1 -9
-39 -6 -118 6 -160 6 -163 13 -163 4 0 9 -13 12 -30 4 -16 17 -36 31 -45 27
-18 76 -27 76 -15 0 5 13 12 28 18 27 9 132 103 132 118 0 4 8 14 18 23 23 20
182 255 182 268 0 6 9 20 20 33 11 13 20 29 20 37 0 7 5 13 10 13 6 0 10 9 10
20 0 11 4 20 9 20 5 0 20 23 32 50 12 27 25 50 29 50 3 0 12 17 20 37 16 47
25 28 24 -52 0 -30 2 -55 5 -55 3 0 7 -30 8 -68 3 -102 5 -122 14 -122 5 0 6
-6 3 -13 -7 -20 31 -226 54 -287 3 -8 7 -25 9 -37 2 -13 13 -44 23 -69 11 -25
20 -52 20 -60 0 -8 5 -14 12 -14 6 0 8 -3 5 -7 -4 -3 -2 -12 4 -20 6 -7 9 -13
5 -13 -3 0 7 -22 23 -48 16 -27 32 -59 35 -70 4 -12 13 -28 19 -35 7 -7 28
-35 47 -62 19 -28 55 -72 80 -98 25 -27 46 -52 48 -57 2 -4 -24 -7 -58 -6 -33
0 -60 4 -60 8 0 4 -10 4 -22 -1 -13 -5 -33 -5 -45 0 -13 5 -25 4 -29 -2 -4 -6
-11 -6 -20 2 -8 6 -14 8 -14 3 0 -5 -12 -10 -27 -10 -72 -4 -96 -10 -119 -33
-29 -29 -30 -56 -4 -139 34 -108 39 -148 26 -212 -4 -19 -10 -47 -13 -62 -3
-16 -9 -28 -12 -28 -4 0 -8 -6 -9 -12 -1 -7 -4 -33 -7 -58 -11 -92 40 -110
290 -105 94 2 179 6 191 8 11 3 60 8 110 12 49 4 91 9 94 10 3 2 34 6 70 10
36 4 72 9 81 10 9 2 40 6 69 10 29 4 62 9 74 11 12 2 37 7 56 9 19 3 46 8 60
11 14 3 36 8 50 11 41 8 55 11 55 13 0 1 20 3 45 6 24 2 47 9 51 15 4 7 12 8
18 5 6 -4 17 -4 23 1 7 4 18 8 23 10 12 2 46 11 78 19 12 3 28 6 35 6 6 1 12
5 12 10 0 5 4 7 8 4 5 -3 20 1 35 9 14 7 28 11 31 7 3 -3 6 0 6 7 0 7 4 9 10
6 6 -3 10 -1 10 4 0 6 3 10 8 9 4 -1 17 3 30 10 20 11 28 10 57 -8 19 -12 35
-19 35 -16 0 4 11 -1 24 -9 13 -9 28 -15 32 -14 5 1 23 -3 39 -10 17 -7 44
-15 60 -18 17 -3 36 -10 42 -16 7 -5 20 -7 28 -3 8 3 15 1 15 -5 0 -6 7 -9 15
-6 8 4 17 2 20 -3 3 -5 13 -8 23 -8 9 0 28 -2 42 -5 70 -17 159 -35 195 -41
22 -3 49 -7 60 -10 11 -2 43 -7 70 -10 65 -9 183 -26 215 -31 14 -2 59 -6 100
-10 41 -3 89 -8 105 -10 17 -3 102 -7 190 -10 244 -8 311 14 302 99 -3 34 -18
90 -44 166 -5 14 -7 104 -2 115 1 3 3 10 4 15 1 6 3 11 5 13 1 2 6 20 13 49 1
7 6 19 10 25 4 7 11 35 14 62 5 44 3 51 -21 72 -26 23 -34 25 -91 32 -17 2
-36 7 -43 11 -7 4 -12 3 -12 -1 0 -10 -41 -10 -57 0 -5 4 -13 4 -16 0 -10 -9
-177 -10 -183 -1 -3 4 -1 8 4 8 14 0 112 103 112 117 0 7 3 13 8 13 4 0 18 18
32 40 14 22 28 40 33 40 4 0 6 4 3 8 -3 5 4 21 15 38 19 27 35 60 38 76 1 5
10 24 21 43 11 20 20 41 20 48 0 7 7 25 15 41 8 15 13 32 10 36 -3 5 -1 10 4
12 8 3 47 141 55 193 2 11 6 31 10 45 11 44 29 201 30 257 1 24 3 43 6 43 3 0
6 24 5 53 0 29 2 65 5 80 5 27 6 26 30 -20 61 -117 173 -303 182 -303 6 0 9
-3 5 -6 -7 -7 27 -63 98 -158 79 -106 171 -196 200 -196 8 0 15 -4 15 -8 0
-13 59 -5 77 10 22 18 41 65 49 124 8 58 11 274 4 274 -3 0 -6 19 -6 43 -2 43
-12 142 -15 142 0 0 -2 14 -4 30 -1 17 -3 30 -4 30 -4 0 -12 58 -14 95 -1 19
-5 37 -8 40 -4 3 -9 21 -12 40 -26 156 -125 484 -205 675 -44 106 -131 282
-174 353 -21 34 -38 67 -38 72 0 6 -4 10 -10 10 -5 0 -10 5 -10 10 0 15 -152
240 -162 240 -4 0 -8 5 -8 11 0 16 -101 145 -187 240 -24 25 -43 48 -43 50 0
3 -36 42 -80 87 -70 72 -88 99 -142 210 -34 70 -86 168 -115 219 -29 51 -53
94 -53 96 0 2 108 3 240 3 278 0 281 1 256 71 -15 42 -42 80 -85 117 -13 12
-34 31 -47 44 -13 12 -26 22 -29 22 -4 0 -21 11 -39 25 -18 14 -38 25 -44 25
-7 0 -12 3 -12 8 0 4 -15 13 -32 21 -18 8 -60 27 -92 43 -33 15 -67 28 -76 28
-9 0 -20 3 -24 7 -3 4 -12 8 -19 9 -7 1 -37 9 -67 18 -30 8 -68 18 -85 20 -16
3 -54 10 -84 16 -29 5 -71 10 -92 10 -32 0 -46 8 -99 60 -34 33 -64 60 -67 60
-3 0 -13 8 -22 18 -24 28 -126 102 -139 102 -7 0 -12 4 -12 8 0 12 -137 78
-205 98 -56 16 -186 26 -230 16z"/>
</g>
</svg>
